<svg class="rich-terminal" viewBox="0 0 994 684.4" xmlns="http://www.w3.org/2000/svg">
    <!-- Generated with Rich https://www.textualize.io -->
    <style>

    @font-face {
        font-family: "Fira Code";
        src: local("FiraCode-Regular"),
                url("https://cdnjs.cloudflare.com/ajax/libs/firacode/6.2.0/woff2/FiraCode-Regular.woff2") format("woff2"),
                url("https://cdnjs.cloudflare.com/ajax/libs/firacode/6.2.0/woff/FiraCode-Regular.woff") format("woff");
        font-style: normal;
        font-weight: 400;
    }
    @font-face {
        font-family: "Fira Code";
        src: local("FiraCode-Bold"),
                url("https://cdnjs.cloudflare.com/ajax/libs/firacode/6.2.0/woff2/FiraCode-Bold.woff2") format("woff2"),
                url("https://cdnjs.cloudflare.com/ajax/libs/firacode/6.2.0/woff/FiraCode-Bold.woff") format("woff");
        font-style: bold;
        font-weight: 700;
    }

    .terminal-2175983513-matrix {
        font-family: Fira Code, monospace;
        font-size: 20px;
        line-height: 24.4px;
        font-variant-east-asian: full-width;
    }

    .terminal-2175983513-title {
        font-size: 18px;
        font-weight: bold;
        font-family: arial;
    }

    .terminal-2175983513-r1 { fill: #c5c8c6 }
.terminal-2175983513-r2 { fill: #2dd4bf;font-weight: bold }
.terminal-2175983513-r3 { fill: #2a988a;font-weight: bold }
.terminal-2175983513-r4 { fill: #1a1a1a }
.terminal-2175983513-r5 { fill: #d9d9d9;font-weight: bold }
.terminal-2175983513-r6 { fill: #0178d4 }
.terminal-2175983513-r7 { fill: #595959 }
.terminal-2175983513-r8 { fill: #272727 }
.terminal-2175983513-r9 { fill: #d9d9d9 }
.terminal-2175983513-r10 { fill: #191919 }
.terminal-2175983513-r11 { fill: #1e1e1e }
.terminal-2175983513-r12 { fill: #242f38 }
.terminal-2175983513-r13 { fill: #8ad4a1 }
.terminal-2175983513-r14 { fill: #000f18 }
.terminal-2175983513-r15 { fill: #ffa62b;font-weight: bold }
.terminal-2175983513-r16 { fill: #e0e0e0 }
.terminal-2175983513-r17 { fill: #4b4b4b }
    </style>

    <defs>
    <clipPath id="terminal-2175983513-clip-terminal">
      <rect x="0" y="0" width="975.0" height="633.4" />
    </clipPath>
    <clipPath id="terminal-2175983513-line-0">
    <rect x="0" y="1.5" width="976" height="24.65"/>
            </clipPath>
<clipPath id="terminal-2175983513-line-1">
    <rect x="0" y="25.9" width="976" height="24.65"/>
            </clipPath>
<clipPath id="terminal-2175983513-line-2">
    <rect x="0" y="50.3" width="976" height="24.65"/>
            </clipPath>
<clipPath id="terminal-2175983513-line-3">
    <rect x="0" y="74.7" width="976" height="24.65"/>
            </clipPath>
<clipPath id="terminal-2175983513-line-4">
    <rect x="0" y="99.1" width="976" height="24.65"/>
            </clipPath>
<clipPath id="terminal-2175983513-line-5">
    <rect x="0" y="123.5" width="976" height="24.65"/>
            </clipPath>
<clipPath id="terminal-2175983513-line-6">
    <rect x="0" y="147.9" width="976" height="24.65"/>
            </clipPath>
<clipPath id="terminal-2175983513-line-7">
    <rect x="0" y="172.3" width="976" height="24.65"/>
            </clipPath>
<clipPath id="terminal-2175983513-line-8">
    <rect x="0" y="196.7" width="976" height="24.65"/>
            </clipPath>
<clipPath id="terminal-2175983513-line-9">
    <rect x="0" y="221.1" width="976" height="24.65"/>
            </clipPath>
<clipPath id="terminal-2175983513-line-10">
    <rect x="0" y="245.5" width="976" height="24.65"/>
            </clipPath>
<clipPath id="terminal-2175983513-line-11">
    <rect x="0" y="269.9" width="976" height="24.65"/>
            </clipPath>
<clipPath id="terminal-2175983513-line-12">
    <rect x="0" y="294.3" width="976" height="24.65"/>
            </clipPath>
<clipPath id="terminal-2175983513-line-13">
    <rect x="0" y="318.7" width="976" height="24.65"/>
            </clipPath>
<clipPath id="terminal-2175983513-line-14">
    <rect x="0" y="343.1" width="976" height="24.65"/>
            </clipPath>
<clipPath id="terminal-2175983513-line-15">
    <rect x="0" y="367.5" width="976" height="24.65"/>
            </clipPath>
<clipPath id="terminal-2175983513-line-16">
    <rect x="0" y="391.9" width="976" height="24.65"/>
            </clipPath>
<clipPath id="terminal-2175983513-line-17">
    <rect x="0" y="416.3" width="976" height="24.65"/>
            </clipPath>
<clipPath id="terminal-2175983513-line-18">
    <rect x="0" y="440.7" width="976" height="24.65"/>
            </clipPath>
<clipPath id="terminal-2175983513-line-19">
    <rect x="0" y="465.1" width="976" height="24.65"/>
            </clipPath>
<clipPath id="terminal-2175983513-line-20">
    <rect x="0" y="489.5" width="976" height="24.65"/>
            </clipPath>
<clipPath id="terminal-2175983513-line-21">
    <rect x="0" y="513.9" width="976" height="24.65"/>
            </clipPath>
<clipPath id="terminal-2175983513-line-22">
    <rect x="0" y="538.3" width="976" height="24.65"/>
            </clipPath>
<clipPath id="terminal-2175983513-line-23">
    <rect x="0" y="562.7" width="976" height="24.65"/>
            </clipPath>
<clipPath id="terminal-2175983513-line-24">
    <rect x="0" y="587.1" width="976" height="24.65"/>
            </clipPath>
    </defs>

    <rect fill="#292929" stroke="rgba(255,255,255,0.35)" stroke-width="1" x="1" y="1" width="992" height="682.4" rx="8"/><text class="terminal-2175983513-title" fill="#c5c8c6" text-anchor="middle" x="496" y="27">mynah</text>
            <g transform="translate(26,22)">
            <circle cx="0" cy="0" r="7" fill="#ff5f57"/>
            <circle cx="22" cy="0" r="7" fill="#febc2e"/>
            <circle cx="44" cy="0" r="7" fill="#28c840"/>
            </g>
        
    <g transform="translate(9, 41)" clip-path="url(#terminal-2175983513-clip-terminal)">
    <rect fill="#262626" x="0" y="1.5" width="12.2" height="24.65" shape-rendering="crispEdges"/><rect fill="#262626" x="12.2" y="1.5" width="12.2" height="24.65" shape-rendering="crispEdges"/><rect fill="#262626" x="24.4" y="1.5" width="61" height="24.65" shape-rendering="crispEdges"/><rect fill="#262626" x="85.4" y="1.5" width="12.2" height="24.65" shape-rendering="crispEdges"/><rect fill="#262626" x="97.6" y="1.5" width="158.6" height="24.65" shape-rendering="crispEdges"/><rect fill="#262626" x="256.2" y="1.5" width="61" height="24.65" shape-rendering="crispEdges"/><rect fill="#262626" x="317.2" y="1.5" width="36.6" height="24.65" shape-rendering="crispEdges"/><rect fill="#262626" x="353.8" y="1.5" width="305" height="24.65" shape-rendering="crispEdges"/><rect fill="#262626" x="658.8" y="1.5" width="170.8" height="24.65" shape-rendering="crispEdges"/><rect fill="#262626" x="829.6" y="1.5" width="12.2" height="24.65" shape-rendering="crispEdges"/><rect fill="#262626" x="841.8" y="1.5" width="0" height="24.65" shape-rendering="crispEdges"/><rect fill="#262626" x="841.8" y="1.5" width="97.6" height="24.65" shape-rendering="crispEdges"/><rect fill="#262626" x="939.4" y="1.5" width="12.2" height="24.65" shape-rendering="crispEdges"/><rect fill="#003054" x="951.6" y="1.5" width="24.4" height="24.65" shape-rendering="crispEdges"/><rect fill="#1a1a1a" x="0" y="25.9" width="951.6" height="24.65" shape-rendering="crispEdges"/><rect fill="#003054" x="951.6" y="25.9" width="24.4" height="24.65" shape-rendering="crispEdges"/><rect fill="#1a1a1a" x="0" y="50.3" width="24.4" height="24.65" shape-rendering="crispEdges"/><rect fill="#1a1a1a" x="24.4" y="50.3" width="902.8" height="24.65" shape-rendering="crispEdges"/><rect fill="#1a1a1a" x="927.2" y="50.3" width="24.4" height="24.65" shape-rendering="crispEdges"/><rect fill="#003054" x="951.6" y="50.3" width="24.4" height="24.65" shape-rendering="crispEdges"/><rect fill="#1a1a1a" x="0" y="74.7" width="24.4" height="24.65" shape-rendering="crispEdges"/><rect fill="#1a1a1a" x="24.4" y="74.7" width="24.4" height="24.65" shape-rendering="crispEdges"/><rect fill="#1a1a1a" x="48.8" y="74.7" width="854" height="24.65" shape-rendering="crispEdges"/><rect fill="#1a1a1a" x="902.8" y="74.7" width="24.4" height="24.65" shape-rendering="crispEdges"/><rect fill="#1a1a1a" x="927.2" y="74.7" width="24.4" height="24.65" shape-rendering="crispEdges"/><rect fill="#003054" x="951.6" y="74.7" width="24.4" height="24.65" shape-rendering="crispEdges"/><rect fill="#1a1a1a" x="0" y="99.1" width="24.4" height="24.65" shape-rendering="crispEdges"/><rect fill="#1a1a1a" x="24.4" y="99.1" width="24.4" height="24.65" shape-rendering="crispEdges"/><rect fill="#1a1a1a" x="48.8" y="99.1" width="73.2" height="24.65" shape-rendering="crispEdges"/><rect fill="#1a1a1a" x="122" y="99.1" width="780.8" height="24.65" shape-rendering="crispEdges"/><rect fill="#1a1a1a" x="902.8" y="99.1" width="24.4" height="24.65" shape-rendering="crispEdges"/><rect fill="#1a1a1a" x="927.2" y="99.1" width="24.4" height="24.65" shape-rendering="crispEdges"/><rect fill="#003054" x="951.6" y="99.1" width="24.4" height="24.65" shape-rendering="crispEdges"/><rect fill="#1a1a1a" x="0" y="123.5" width="24.4" height="24.65" shape-rendering="crispEdges"/><rect fill="#1a1a1a" x="24.4" y="123.5" width="24.4" height="24.65" shape-rendering="crispEdges"/><rect fill="#1a1a1a" x="48.8" y="123.5" width="12.2" height="24.65" shape-rendering="crispEdges"/><rect fill="#1a1a1a" x="61" y="123.5" width="231.8" height="24.65" shape-rendering="crispEdges"/><rect fill="#1a1a1a" x="292.8" y="123.5" width="451.4" height="24.65" shape-rendering="crispEdges"/><rect fill="#1a1a1a" x="744.2" y="123.5" width="24.4" height="24.65" shape-rendering="crispEdges"/><rect fill="#0178d4" x="768.6" y="123.5" width="12.2" height="24.65" shape-rendering="crispEdges"/><rect fill="#272727" x="780.8" y="123.5" width="97.6" height="24.65" shape-rendering="crispEdges"/><rect fill="#1a1a1a" x="878.4" y="123.5" width="12.2" height="24.65" shape-rendering="crispEdges"/><rect fill="#1a1a1a" x="890.6" y="123.5" width="12.2" height="24.65" shape-rendering="crispEdges"/><rect fill="#1a1a1a" x="902.8" y="123.5" width="24.4" height="24.65" shape-rendering="crispEdges"/><rect fill="#1a1a1a" x="927.2" y="123.5" width="24.4" height="24.65" shape-rendering="crispEdges"/><rect fill="#003054" x="951.6" y="123.5" width="24.4" height="24.65" shape-rendering="crispEdges"/><rect fill="#1a1a1a" x="0" y="147.9" width="24.4" height="24.65" shape-rendering="crispEdges"/><rect fill="#1a1a1a" x="24.4" y="147.9" width="24.4" height="24.65" shape-rendering="crispEdges"/><rect fill="#1a1a1a" x="48.8" y="147.9" width="12.2" height="24.65" shape-rendering="crispEdges"/><rect fill="#1a1a1a" x="61" y="147.9" width="622.2" height="24.65" shape-rendering="crispEdges"/><rect fill="#1a1a1a" x="683.2" y="147.9" width="61" height="24.65" shape-rendering="crispEdges"/><rect fill="#1a1a1a" x="744.2" y="147.9" width="24.4" height="24.65" shape-rendering="crispEdges"/><rect fill="#0178d4" x="768.6" y="147.9" width="12.2" height="24.65" shape-rendering="crispEdges"/><rect fill="#272727" x="780.8" y="147.9" width="24.4" height="24.65" shape-rendering="crispEdges"/><rect fill="#242f38" x="805.2" y="147.9" width="12.2" height="24.65" shape-rendering="crispEdges"/><rect fill="#242f38" x="817.4" y="147.9" width="12.2" height="24.65" shape-rendering="crispEdges"/><rect fill="#000f18" x="829.6" y="147.9" width="12.2" height="24.65" shape-rendering="crispEdges"/><rect fill="#000f18" x="841.8" y="147.9" width="12.2" height="24.65" shape-rendering="crispEdges"/><rect fill="#272727" x="854" y="147.9" width="24.4" height="24.65" shape-rendering="crispEdges"/><rect fill="#1a1a1a" x="878.4" y="147.9" width="12.2" height="24.65" shape-rendering="crispEdges"/><rect fill="#1a1a1a" x="890.6" y="147.9" width="12.2" height="24.65" shape-rendering="crispEdges"/><rect fill="#1a1a1a" x="902.8" y="147.9" width="24.4" height="24.65" shape-rendering="crispEdges"/><rect fill="#1a1a1a" x="927.2" y="147.9" width="24.4" height="24.65" shape-rendering="crispEdges"/><rect fill="#003054" x="951.6" y="147.9" width="24.4" height="24.65" shape-rendering="crispEdges"/><rect fill="#1a1a1a" x="0" y="172.3" width="24.4" height="24.65" shape-rendering="crispEdges"/><rect fill="#1a1a1a" x="24.4" y="172.3" width="24.4" height="24.65" shape-rendering="crispEdges"/><rect fill="#1a1a1a" x="48.8" y="172.3" width="12.2" height="24.65" shape-rendering="crispEdges"/><rect fill="#1a1a1a" x="61" y="172.3" width="707.6" height="24.65" shape-rendering="crispEdges"/><rect fill="#0178d4" x="768.6" y="172.3" width="12.2" height="24.65" shape-rendering="crispEdges"/><rect fill="#272727" x="780.8" y="172.3" width="97.6" height="24.65" shape-rendering="crispEdges"/><rect fill="#1a1a1a" x="878.4" y="172.3" width="12.2" height="24.65" shape-rendering="crispEdges"/><rect fill="#1a1a1a" x="890.6" y="172.3" width="12.2" height="24.65" shape-rendering="crispEdges"/><rect fill="#1a1a1a" x="902.8" y="172.3" width="24.4" height="24.65" shape-rendering="crispEdges"/><rect fill="#1a1a1a" x="927.2" y="172.3" width="24.4" height="24.65" shape-rendering="crispEdges"/><rect fill="#003054" x="951.6" y="172.3" width="24.4" height="24.65" shape-rendering="crispEdges"/><rect fill="#1a1a1a" x="0" y="196.7" width="24.4" height="24.65" shape-rendering="crispEdges"/><rect fill="#1a1a1a" x="24.4" y="196.7" width="24.4" height="24.65" shape-rendering="crispEdges"/><rect fill="#1a1a1a" x="48.8" y="196.7" width="854" height="24.65" shape-rendering="crispEdges"/><rect fill="#1a1a1a" x="902.8" y="196.7" width="24.4" height="24.65" shape-rendering="crispEdges"/><rect fill="#1a1a1a" x="927.2" y="196.7" width="24.4" height="24.65" shape-rendering="crispEdges"/><rect fill="#003054" x="951.6" y="196.7" width="24.4" height="24.65" shape-rendering="crispEdges"/><rect fill="#1a1a1a" x="0" y="221.1" width="24.4" height="24.65" shape-rendering="crispEdges"/><rect fill="#1a1a1a" x="24.4" y="221.1" width="24.4" height="24.65" shape-rendering="crispEdges"/><rect fill="#1a1a1a" x="48.8" y="221.1" width="12.2" height="24.65" shape-rendering="crispEdges"/><rect fill="#1a1a1a" x="61" y="221.1" width="256.2" height="24.65" shape-rendering="crispEdges"/><rect fill="#1a1a1a" x="317.2" y="221.1" width="427" height="24.65" shape-rendering="crispEdges"/><rect fill="#1a1a1a" x="744.2" y="221.1" width="24.4" height="24.65" shape-rendering="crispEdges"/><rect fill="#191919" x="768.6" y="221.1" width="12.2" height="24.65" shape-rendering="crispEdges"/><rect fill="#1e1e1e" x="780.8" y="221.1" width="97.6" height="24.65" shape-rendering="crispEdges"/><rect fill="#1a1a1a" x="878.4" y="221.1" width="12.2" height="24.65" shape-rendering="crispEdges"/><rect fill="#1a1a1a" x="890.6" y="221.1" width="12.2" height="24.65" shape-rendering="crispEdges"/><rect fill="#1a1a1a" x="902.8" y="221.1" width="24.4" height="24.65" shape-rendering="crispEdges"/><rect fill="#1a1a1a" x="927.2" y="221.1" width="24.4" height="24.65" shape-rendering="crispEdges"/><rect fill="#003054" x="951.6" y="221.1" width="24.4" height="24.65" shape-rendering="crispEdges"/><rect fill="#1a1a1a" x="0" y="245.5" width="24.4" height="24.65" shape-rendering="crispEdges"/><rect fill="#1a1a1a" x="24.4" y="245.5" width="24.4" height="24.65" shape-rendering="crispEdges"/><rect fill="#1a1a1a" x="48.8" y="245.5" width="12.2" height="24.65" shape-rendering="crispEdges"/><rect fill="#1a1a1a" x="61" y="245.5" width="390.4" height="24.65" shape-rendering="crispEdges"/><rect fill="#1a1a1a" x="451.4" y="245.5" width="292.8" height="24.65" shape-rendering="crispEdges"/><rect fill="#1a1a1a" x="744.2" y="245.5" width="24.4" height="24.65" shape-rendering="crispEdges"/><rect fill="#191919" x="768.6" y="245.5" width="12.2" height="24.65" shape-rendering="crispEdges"/><rect fill="#1e1e1e" x="780.8" y="245.5" width="24.4" height="24.65" shape-rendering="crispEdges"/><rect fill="#242f38" x="805.2" y="245.5" width="12.2" height="24.65" shape-rendering="crispEdges"/><rect fill="#242f38" x="817.4" y="245.5" width="12.2" height="24.65" shape-rendering="crispEdges"/><rect fill="#000f18" x="829.6" y="245.5" width="12.2" height="24.65" shape-rendering="crispEdges"/><rect fill="#000f18" x="841.8" y="245.5" width="12.2" height="24.65" shape-rendering="crispEdges"/><rect fill="#1e1e1e" x="854" y="245.5" width="24.4" height="24.65" shape-rendering="crispEdges"/><rect fill="#1a1a1a" x="878.4" y="245.5" width="12.2" height="24.65" shape-rendering="crispEdges"/><rect fill="#1a1a1a" x="890.6" y="245.5" width="12.2" height="24.65" shape-rendering="crispEdges"/><rect fill="#1a1a1a" x="902.8" y="245.5" width="24.4" height="24.65" shape-rendering="crispEdges"/><rect fill="#1a1a1a" x="927.2" y="245.5" width="24.4" height="24.65" shape-rendering="crispEdges"/><rect fill="#003054" x="951.6" y="245.5" width="24.4" height="24.65" shape-rendering="crispEdges"/><rect fill="#1a1a1a" x="0" y="269.9" width="24.4" height="24.65" shape-rendering="crispEdges"/><rect fill="#1a1a1a" x="24.4" y="269.9" width="24.4" height="24.65" shape-rendering="crispEdges"/><rect fill="#1a1a1a" x="48.8" y="269.9" width="12.2" height="24.65" shape-rendering="crispEdges"/><rect fill="#1a1a1a" x="61" y="269.9" width="707.6" height="24.65" shape-rendering="crispEdges"/><rect fill="#191919" x="768.6" y="269.9" width="12.2" height="24.65" shape-rendering="crispEdges"/><rect fill="#1e1e1e" x="780.8" y="269.9" width="97.6" height="24.65" shape-rendering="crispEdges"/><rect fill="#1a1a1a" x="878.4" y="269.9" width="12.2" height="24.65" shape-rendering="crispEdges"/><rect fill="#1a1a1a" x="890.6" y="269.9" width="12.2" height="24.65" shape-rendering="crispEdges"/><rect fill="#1a1a1a" x="902.8" y="269.9" width="24.4" height="24.65" shape-rendering="crispEdges"/><rect fill="#1a1a1a" x="927.2" y="269.9" width="24.4" height="24.65" shape-rendering="crispEdges"/><rect fill="#003054" x="951.6" y="269.9" width="24.4" height="24.65" shape-rendering="crispEdges"/><rect fill="#1a1a1a" x="0" y="294.3" width="24.4" height="24.65" shape-rendering="crispEdges"/><rect fill="#1a1a1a" x="24.4" y="294.3" width="24.4" height="24.65" shape-rendering="crispEdges"/><rect fill="#1a1a1a" x="48.8" y="294.3" width="854" height="24.65" shape-rendering="crispEdges"/><rect fill="#1a1a1a" x="902.8" y="294.3" width="24.4" height="24.65" shape-rendering="crispEdges"/><rect fill="#1a1a1a" x="927.2" y="294.3" width="24.4" height="24.65" shape-rendering="crispEdges"/><rect fill="#003054" x="951.6" y="294.3" width="24.4" height="24.65" shape-rendering="crispEdges"/><rect fill="#1a1a1a" x="0" y="318.7" width="24.4" height="24.65" shape-rendering="crispEdges"/><rect fill="#1a1a1a" x="24.4" y="318.7" width="24.4" height="24.65" shape-rendering="crispEdges"/><rect fill="#1a1a1a" x="48.8" y="318.7" width="12.2" height="24.65" shape-rendering="crispEdges"/><rect fill="#1a1a1a" x="61" y="318.7" width="85.4" height="24.65" shape-rendering="crispEdges"/><rect fill="#1a1a1a" x="146.4" y="318.7" width="597.8" height="24.65" shape-rendering="crispEdges"/><rect fill="#1a1a1a" x="744.2" y="318.7" width="24.4" height="24.65" shape-rendering="crispEdges"/><rect fill="#191919" x="768.6" y="318.7" width="12.2" height="24.65" shape-rendering="crispEdges"/><rect fill="#1e1e1e" x="780.8" y="318.7" width="97.6" height="24.65" shape-rendering="crispEdges"/><rect fill="#1a1a1a" x="878.4" y="318.7" width="12.2" height="24.65" shape-rendering="crispEdges"/><rect fill="#1a1a1a" x="890.6" y="318.7" width="12.2" height="24.65" shape-rendering="crispEdges"/><rect fill="#1a1a1a" x="902.8" y="318.7" width="24.4" height="24.65" shape-rendering="crispEdges"/><rect fill="#1a1a1a" x="927.2" y="318.7" width="24.4" height="24.65" shape-rendering="crispEdges"/><rect fill="#003054" x="951.6" y="318.7" width="24.4" height="24.65" shape-rendering="crispEdges"/><rect fill="#1a1a1a" x="0" y="343.1" width="24.4" height="24.65" shape-rendering="crispEdges"/><rect fill="#1a1a1a" x="24.4" y="343.1" width="24.4" height="24.65" shape-rendering="crispEdges"/><rect fill="#1a1a1a" x="48.8" y="343.1" width="12.2" height="24.65" shape-rendering="crispEdges"/><rect fill="#1a1a1a" x="61" y="343.1" width="683.2" height="24.65" shape-rendering="crispEdges"/><rect fill="#1a1a1a" x="744.2" y="343.1" width="24.4" height="24.65" shape-rendering="crispEdges"/><rect fill="#191919" x="768.6" y="343.1" width="12.2" height="24.65" shape-rendering="crispEdges"/><rect fill="#1e1e1e" x="780.8" y="343.1" width="24.4" height="24.65" shape-rendering="crispEdges"/><rect fill="#242f38" x="805.2" y="343.1" width="12.2" height="24.65" shape-rendering="crispEdges"/><rect fill="#242f38" x="817.4" y="343.1" width="12.2" height="24.65" shape-rendering="crispEdges"/><rect fill="#000f18" x="829.6" y="343.1" width="12.2" height="24.65" shape-rendering="crispEdges"/><rect fill="#000f18" x="841.8" y="343.1" width="12.2" height="24.65" shape-rendering="crispEdges"/><rect fill="#1e1e1e" x="854" y="343.1" width="24.4" height="24.65" shape-rendering="crispEdges"/><rect fill="#1a1a1a" x="878.4" y="343.1" width="12.2" height="24.65" shape-rendering="crispEdges"/><rect fill="#1a1a1a" x="890.6" y="343.1" width="12.2" height="24.65" shape-rendering="crispEdges"/><rect fill="#1a1a1a" x="902.8" y="343.1" width="24.4" height="24.65" shape-rendering="crispEdges"/><rect fill="#1a1a1a" x="927.2" y="343.1" width="24.4" height="24.65" shape-rendering="crispEdges"/><rect fill="#003054" x="951.6" y="343.1" width="24.4" height="24.65" shape-rendering="crispEdges"/><rect fill="#1a1a1a" x="0" y="367.5" width="24.4" height="24.65" shape-rendering="crispEdges"/><rect fill="#1a1a1a" x="24.4" y="367.5" width="24.4" height="24.65" shape-rendering="crispEdges"/><rect fill="#1a1a1a" x="48.8" y="367.5" width="12.2" height="24.65" shape-rendering="crispEdges"/><rect fill="#1a1a1a" x="61" y="367.5" width="707.6" height="24.65" shape-rendering="crispEdges"/><rect fill="#191919" x="768.6" y="367.5" width="12.2" height="24.65" shape-rendering="crispEdges"/><rect fill="#1e1e1e" x="780.8" y="367.5" width="97.6" height="24.65" shape-rendering="crispEdges"/><rect fill="#1a1a1a" x="878.4" y="367.5" width="12.2" height="24.65" shape-rendering="crispEdges"/><rect fill="#1a1a1a" x="890.6" y="367.5" width="12.2" height="24.65" shape-rendering="crispEdges"/><rect fill="#1a1a1a" x="902.8" y="367.5" width="24.4" height="24.65" shape-rendering="crispEdges"/><rect fill="#1a1a1a" x="927.2" y="367.5" width="24.4" height="24.65" shape-rendering="crispEdges"/><rect fill="#003054" x="951.6" y="367.5" width="24.4" height="24.65" shape-rendering="crispEdges"/><rect fill="#1a1a1a" x="0" y="391.9" width="24.4" height="24.65" shape-rendering="crispEdges"/><rect fill="#1a1a1a" x="24.4" y="391.9" width="24.4" height="24.65" shape-rendering="crispEdges"/><rect fill="#1a1a1a" x="48.8" y="391.9" width="854" height="24.65" shape-rendering="crispEdges"/><rect fill="#1a1a1a" x="902.8" y="391.9" width="24.4" height="24.65" shape-rendering="crispEdges"/><rect fill="#1a1a1a" x="927.2" y="391.9" width="24.4" height="24.65" shape-rendering="crispEdges"/><rect fill="#003054" x="951.6" y="391.9" width="24.4" height="24.65" shape-rendering="crispEdges"/><rect fill="#1a1a1a" x="0" y="416.3" width="24.4" height="24.65" shape-rendering="crispEdges"/><rect fill="#1a1a1a" x="24.4" y="416.3" width="24.4" height="24.65" shape-rendering="crispEdges"/><rect fill="#1a1a1a" x="48.8" y="416.3" width="73.2" height="24.65" shape-rendering="crispEdges"/><rect fill="#1a1a1a" x="122" y="416.3" width="780.8" height="24.65" shape-rendering="crispEdges"/><rect fill="#1a1a1a" x="902.8" y="416.3" width="24.4" height="24.65" shape-rendering="crispEdges"/><rect fill="#1a1a1a" x="927.2" y="416.3" width="24.4" height="24.65" shape-rendering="crispEdges"/><rect fill="#000000" x="951.6" y="416.3" width="24.4" height="24.65" shape-rendering="crispEdges"/><rect fill="#1a1a1a" x="0" y="440.7" width="24.4" height="24.65" shape-rendering="crispEdges"/><rect fill="#1a1a1a" x="24.4" y="440.7" width="24.4" height="24.65" shape-rendering="crispEdges"/><rect fill="#191919" x="48.8" y="440.7" width="12.2" height="24.65" shape-rendering="crispEdges"/><rect fill="#1e1e1e" x="61" y="440.7" width="829.6" height="24.65" shape-rendering="crispEdges"/><rect fill="#1a1a1a" x="890.6" y="440.7" width="12.2" height="24.65" shape-rendering="crispEdges"/><rect fill="#1a1a1a" x="902.8" y="440.7" width="24.4" height="24.65" shape-rendering="crispEdges"/><rect fill="#1a1a1a" x="927.2" y="440.7" width="24.4" height="24.65" shape-rendering="crispEdges"/><rect fill="#000000" x="951.6" y="440.7" width="24.4" height="24.65" shape-rendering="crispEdges"/><rect fill="#1a1a1a" x="0" y="465.1" width="24.4" height="24.65" shape-rendering="crispEdges"/><rect fill="#1a1a1a" x="24.4" y="465.1" width="24.4" height="24.65" shape-rendering="crispEdges"/><rect fill="#191919" x="48.8" y="465.1" width="12.2" height="24.65" shape-rendering="crispEdges"/><rect fill="#1e1e1e" x="61" y="465.1" width="12.2" height="24.65" shape-rendering="crispEdges"/><rect fill="#1e1e1e" x="73.2" y="465.1" width="12.2" height="24.65" shape-rendering="crispEdges"/><rect fill="#242f38" x="85.4" y="465.1" width="12.2" height="24.65" shape-rendering="crispEdges"/><rect fill="#1e1e1e" x="97.6" y="465.1" width="12.2" height="24.65" shape-rendering="crispEdges"/><rect fill="#153854" x="109.8" y="465.1" width="268.4" height="24.65" shape-rendering="crispEdges"/><rect fill="#1e1e1e" x="378.2" y="465.1" width="97.6" height="24.65" shape-rendering="crispEdges"/><rect fill="#1e1e1e" x="475.8" y="465.1" width="12.2" height="24.65" shape-rendering="crispEdges"/><rect fill="#242f38" x="488" y="465.1" width="12.2" height="24.65" shape-rendering="crispEdges"/><rect fill="#1e1e1e" x="500.2" y="465.1" width="12.2" height="24.65" shape-rendering="crispEdges"/><rect fill="#1e1e1e" x="512.4" y="465.1" width="183" height="24.65" shape-rendering="crispEdges"/><rect fill="#1e1e1e" x="695.4" y="465.1" width="183" height="24.65" shape-rendering="crispEdges"/><rect fill="#1e1e1e" x="878.4" y="465.1" width="12.2" height="24.65" shape-rendering="crispEdges"/><rect fill="#1a1a1a" x="890.6" y="465.1" width="12.2" height="24.65" shape-rendering="crispEdges"/><rect fill="#1a1a1a" x="902.8" y="465.1" width="24.4" height="24.65" shape-rendering="crispEdges"/><rect fill="#1a1a1a" x="927.2" y="465.1" width="24.4" height="24.65" shape-rendering="crispEdges"/><rect fill="#000000" x="951.6" y="465.1" width="24.4" height="24.65" shape-rendering="crispEdges"/><rect fill="#1a1a1a" x="0" y="489.5" width="24.4" height="24.65" shape-rendering="crispEdges"/><rect fill="#1a1a1a" x="24.4" y="489.5" width="24.4" height="24.65" shape-rendering="crispEdges"/><rect fill="#191919" x="48.8" y="489.5" width="12.2" height="24.65" shape-rendering="crispEdges"/><rect fill="#1e1e1e" x="61" y="489.5" width="829.6" height="24.65" shape-rendering="crispEdges"/><rect fill="#1a1a1a" x="890.6" y="489.5" width="12.2" height="24.65" shape-rendering="crispEdges"/><rect fill="#1a1a1a" x="902.8" y="489.5" width="24.4" height="24.65" shape-rendering="crispEdges"/><rect fill="#1a1a1a" x="927.2" y="489.5" width="24.4" height="24.65" shape-rendering="crispEdges"/><rect fill="#000000" x="951.6" y="489.5" width="24.4" height="24.65" shape-rendering="crispEdges"/><rect fill="#1a1a1a" x="0" y="513.9" width="24.4" height="24.65" shape-rendering="crispEdges"/><rect fill="#1a1a1a" x="24.4" y="513.9" width="24.4" height="24.65" shape-rendering="crispEdges"/><rect fill="#1a1a1a" x="48.8" y="513.9" width="854" height="24.65" shape-rendering="crispEdges"/><rect fill="#1a1a1a" x="902.8" y="513.9" width="24.4" height="24.65" shape-rendering="crispEdges"/><rect fill="#1a1a1a" x="927.2" y="513.9" width="24.4" height="24.65" shape-rendering="crispEdges"/><rect fill="#000000" x="951.6" y="513.9" width="24.4" height="24.65" shape-rendering="crispEdges"/><rect fill="#1a1a1a" x="0" y="538.3" width="24.4" height="24.65" shape-rendering="crispEdges"/><rect fill="#1a1a1a" x="24.4" y="538.3" width="24.4" height="24.65" shape-rendering="crispEdges"/><rect fill="#191919" x="48.8" y="538.3" width="12.2" height="24.65" shape-rendering="crispEdges"/><rect fill="#1e1e1e" x="61" y="538.3" width="829.6" height="24.65" shape-rendering="crispEdges"/><rect fill="#1a1a1a" x="890.6" y="538.3" width="12.2" height="24.65" shape-rendering="crispEdges"/><rect fill="#1a1a1a" x="902.8" y="538.3" width="24.4" height="24.65" shape-rendering="crispEdges"/><rect fill="#1a1a1a" x="927.2" y="538.3" width="24.4" height="24.65" shape-rendering="crispEdges"/><rect fill="#000000" x="951.6" y="538.3" width="24.4" height="24.65" shape-rendering="crispEdges"/><rect fill="#1a1a1a" x="0" y="562.7" width="24.4" height="24.65" shape-rendering="crispEdges"/><rect fill="#1a1a1a" x="24.4" y="562.7" width="24.4" height="24.65" shape-rendering="crispEdges"/><rect fill="#191919" x="48.8" y="562.7" width="12.2" height="24.65" shape-rendering="crispEdges"/><rect fill="#1e1e1e" x="61" y="562.7" width="12.2" height="24.65" shape-rendering="crispEdges"/><rect fill="#1e1e1e" x="73.2" y="562.7" width="12.2" height="24.65" shape-rendering="crispEdges"/><rect fill="#242f38" x="85.4" y="562.7" width="12.2" height="24.65" shape-rendering="crispEdges"/><rect fill="#1e1e1e" x="97.6" y="562.7" width="12.2" height="24.65" shape-rendering="crispEdges"/><rect fill="#153854" x="109.8" y="562.7" width="158.6" height="24.65" shape-rendering="crispEdges"/><rect fill="#1e1e1e" x="268.4" y="562.7" width="73.2" height="24.65" shape-rendering="crispEdges"/><rect fill="#1e1e1e" x="341.6" y="562.7" width="12.2" height="24.65" shape-rendering="crispEdges"/><rect fill="#242f38" x="353.8" y="562.7" width="12.2" height="24.65" shape-rendering="crispEdges"/><rect fill="#1e1e1e" x="366" y="562.7" width="12.2" height="24.65" shape-rendering="crispEdges"/><rect fill="#1e1e1e" x="378.2" y="562.7" width="170.8" height="24.65" shape-rendering="crispEdges"/><rect fill="#1e1e1e" x="549" y="562.7" width="61" height="24.65" shape-rendering="crispEdges"/><rect fill="#1e1e1e" x="610" y="562.7" width="12.2" height="24.65" shape-rendering="crispEdges"/><rect fill="#242f38" x="622.2" y="562.7" width="12.2" height="24.65" shape-rendering="crispEdges"/><rect fill="#1e1e1e" x="634.4" y="562.7" width="12.2" height="24.65" shape-rendering="crispEdges"/><rect fill="#1e1e1e" x="646.6" y="562.7" width="158.6" height="24.65" shape-rendering="crispEdges"/><rect fill="#1e1e1e" x="805.2" y="562.7" width="73.2" height="24.65" shape-rendering="crispEdges"/><rect fill="#1e1e1e" x="878.4" y="562.7" width="12.2" height="24.65" shape-rendering="crispEdges"/><rect fill="#1a1a1a" x="890.6" y="562.7" width="12.2" height="24.65" shape-rendering="crispEdges"/><rect fill="#1a1a1a" x="902.8" y="562.7" width="24.4" height="24.65" shape-rendering="crispEdges"/><rect fill="#1a1a1a" x="927.2" y="562.7" width="24.4" height="24.65" shape-rendering="crispEdges"/><rect fill="#000000" x="951.6" y="562.7" width="24.4" height="24.65" shape-rendering="crispEdges"/><rect fill="#1a1a1a" x="0" y="587.1" width="24.4" height="24.65" shape-rendering="crispEdges"/><rect fill="#1a1a1a" x="24.4" y="587.1" width="24.4" height="24.65" shape-rendering="crispEdges"/><rect fill="#191919" x="48.8" y="587.1" width="12.2" height="24.65" shape-rendering="crispEdges"/><rect fill="#1e1e1e" x="61" y="587.1" width="829.6" height="24.65" shape-rendering="crispEdges"/><rect fill="#1a1a1a" x="890.6" y="587.1" width="12.2" height="24.65" shape-rendering="crispEdges"/><rect fill="#1a1a1a" x="902.8" y="587.1" width="24.4" height="24.65" shape-rendering="crispEdges"/><rect fill="#1a1a1a" x="927.2" y="587.1" width="24.4" height="24.65" shape-rendering="crispEdges"/><rect fill="#000000" x="951.6" y="587.1" width="24.4" height="24.65" shape-rendering="crispEdges"/><rect fill="#262626" x="0" y="611.5" width="24.4" height="24.65" shape-rendering="crispEdges"/><rect fill="#262626" x="24.4" y="611.5" width="36.6" height="24.65" shape-rendering="crispEdges"/><rect fill="#262626" x="61" y="611.5" width="85.4" height="24.65" shape-rendering="crispEdges"/><rect fill="#262626" x="146.4" y="611.5" width="658.8" height="24.65" shape-rendering="crispEdges"/><rect fill="#262626" x="805.2" y="611.5" width="12.2" height="24.65" shape-rendering="crispEdges"/><rect fill="#262626" x="817.4" y="611.5" width="24.4" height="24.65" shape-rendering="crispEdges"/><rect fill="#262626" x="841.8" y="611.5" width="85.4" height="24.65" shape-rendering="crispEdges"/><rect fill="#262626" x="927.2" y="611.5" width="12.2" height="24.65" shape-rendering="crispEdges"/><rect fill="#262626" x="939.4" y="611.5" width="12.2" height="24.65" shape-rendering="crispEdges"/><rect fill="#000000" x="951.6" y="611.5" width="24.4" height="24.65" shape-rendering="crispEdges"/>
    <g class="terminal-2175983513-matrix">
    <text class="terminal-2175983513-r2" x="12.2" y="20" textLength="12.2" clip-path="url(#terminal-2175983513-line-0)">⭘</text><text class="terminal-2175983513-r2" x="256.2" y="20" textLength="61" clip-path="url(#terminal-2175983513-line-0)">mynah</text><text class="terminal-2175983513-r3" x="317.2" y="20" textLength="36.6" clip-path="url(#terminal-2175983513-line-0)">&#160;—&#160;</text><text class="terminal-2175983513-r3" x="353.8" y="20" textLength="305" clip-path="url(#terminal-2175983513-line-0)">local-first&#160;transcription</text><text class="terminal-2175983513-r1" x="976" y="20" textLength="12.2" clip-path="url(#terminal-2175983513-line-0)">
</text><text class="terminal-2175983513-r1" x="976" y="44.4" textLength="12.2" clip-path="url(#terminal-2175983513-line-1)">
</text><text class="terminal-2175983513-r1" x="976" y="68.8" textLength="12.2" clip-path="url(#terminal-2175983513-line-2)">
</text><text class="terminal-2175983513-r1" x="976" y="93.2" textLength="12.2" clip-path="url(#terminal-2175983513-line-3)">
</text><text class="terminal-2175983513-r2" x="48.8" y="117.6" textLength="73.2" clip-path="url(#terminal-2175983513-line-4)">Output</text><text class="terminal-2175983513-r1" x="976" y="117.6" textLength="12.2" clip-path="url(#terminal-2175983513-line-4)">
</text><text class="terminal-2175983513-r5" x="61" y="142" textLength="231.8" clip-path="url(#terminal-2175983513-line-5)">Speaker&#160;diarization</text><text class="terminal-2175983513-r4" x="768.6" y="142" textLength="12.2" clip-path="url(#terminal-2175983513-line-5)">▊</text><text class="terminal-2175983513-r6" x="780.8" y="142" textLength="97.6" clip-path="url(#terminal-2175983513-line-5)">▔▔▔▔▔▔▔▔</text><text class="terminal-2175983513-r6" x="878.4" y="142" textLength="12.2" clip-path="url(#terminal-2175983513-line-5)">▎</text><text class="terminal-2175983513-r1" x="976" y="142" textLength="12.2" clip-path="url(#terminal-2175983513-line-5)">
</text><text class="terminal-2175983513-r7" x="61" y="166.4" textLength="622.2" clip-path="url(#terminal-2175983513-line-6)">Separate&#160;transcript&#160;by&#160;speaker&#160;&#160;(HF&#160;token&#160;required)</text><text class="terminal-2175983513-r4" x="768.6" y="166.4" textLength="12.2" clip-path="url(#terminal-2175983513-line-6)">▊</text><text class="terminal-2175983513-r6" x="878.4" y="166.4" textLength="12.2" clip-path="url(#terminal-2175983513-line-6)">▎</text><text class="terminal-2175983513-r1" x="976" y="166.4" textLength="12.2" clip-path="url(#terminal-2175983513-line-6)">
</text><text class="terminal-2175983513-r4" x="768.6" y="190.8" textLength="12.2" clip-path="url(#terminal-2175983513-line-7)">▊</text><text class="terminal-2175983513-r6" x="780.8" y="190.8" textLength="97.6" clip-path="url(#terminal-2175983513-line-7)">▁▁▁▁▁▁▁▁</text><text class="terminal-2175983513-r6" x="878.4" y="190.8" textLength="12.2" clip-path="url(#terminal-2175983513-line-7)">▎</text><text class="terminal-2175983513-r1" x="976" y="190.8" textLength="12.2" clip-path="url(#terminal-2175983513-line-7)">
</text><text class="terminal-2175983513-r1" x="976" y="215.2" textLength="12.2" clip-path="url(#terminal-2175983513-line-8)">
</text><text class="terminal-2175983513-r5" x="61" y="239.6" textLength="256.2" clip-path="url(#terminal-2175983513-line-9)">Word-level&#160;timestamps</text><text class="terminal-2175983513-r4" x="768.6" y="239.6" textLength="12.2" clip-path="url(#terminal-2175983513-line-9)">▊</text><text class="terminal-2175983513-r10" x="780.8" y="239.6" textLength="97.6" clip-path="url(#terminal-2175983513-line-9)">▔▔▔▔▔▔▔▔</text><text class="terminal-2175983513-r10" x="878.4" y="239.6" textLength="12.2" clip-path="url(#terminal-2175983513-line-9)">▎</text><text class="terminal-2175983513-r1" x="976" y="239.6" textLength="12.2" clip-path="url(#terminal-2175983513-line-9)">
</text><text class="terminal-2175983513-r7" x="61" y="264" textLength="390.4" clip-path="url(#terminal-2175983513-line-10)">Prefix&#160;each&#160;line&#160;with&#160;[HH:MM:SS]</text><text class="terminal-2175983513-r4" x="768.6" y="264" textLength="12.2" clip-path="url(#terminal-2175983513-line-10)">▊</text><text class="terminal-2175983513-r10" x="878.4" y="264" textLength="12.2" clip-path="url(#terminal-2175983513-line-10)">▎</text><text class="terminal-2175983513-r1" x="976" y="264" textLength="12.2" clip-path="url(#terminal-2175983513-line-10)">
</text><text class="terminal-2175983513-r4" x="768.6" y="288.4" textLength="12.2" clip-path="url(#terminal-2175983513-line-11)">▊</text><text class="terminal-2175983513-r10" x="780.8" y="288.4" textLength="97.6" clip-path="url(#terminal-2175983513-line-11)">▁▁▁▁▁▁▁▁</text><text class="terminal-2175983513-r10" x="878.4" y="288.4" textLength="12.2" clip-path="url(#terminal-2175983513-line-11)">▎</text><text class="terminal-2175983513-r1" x="976" y="288.4" textLength="12.2" clip-path="url(#terminal-2175983513-line-11)">
</text><text class="terminal-2175983513-r1" x="976" y="312.8" textLength="12.2" clip-path="url(#terminal-2175983513-line-12)">
</text><text class="terminal-2175983513-r5" x="61" y="337.2" textLength="85.4" clip-path="url(#terminal-2175983513-line-13)">Denoise</text><text class="terminal-2175983513-r4" x="768.6" y="337.2" textLength="12.2" clip-path="url(#terminal-2175983513-line-13)">▊</text><text class="terminal-2175983513-r10" x="780.8" y="337.2" textLength="97.6" clip-path="url(#terminal-2175983513-line-13)">▔▔▔▔▔▔▔▔</text><text class="terminal-2175983513-r10" x="878.4" y="337.2" textLength="12.2" clip-path="url(#terminal-2175983513-line-13)">▎</text><text class="terminal-2175983513-r1" x="976" y="337.2" textLength="12.2" clip-path="url(#terminal-2175983513-line-13)">
</text><text class="terminal-2175983513-r7" x="61" y="361.6" textLength="683.2" clip-path="url(#terminal-2175983513-line-14)">Remove&#160;background&#160;noise&#160;before&#160;transcription&#160;&#160;(+~10&#160;min)</text><text class="terminal-2175983513-r4" x="768.6" y="361.6" textLength="12.2" clip-path="url(#terminal-2175983513-line-14)">▊</text><text class="terminal-2175983513-r10" x="878.4" y="361.6" textLength="12.2" clip-path="url(#terminal-2175983513-line-14)">▎</text><text class="terminal-2175983513-r1" x="976" y="361.6" textLength="12.2" clip-path="url(#terminal-2175983513-line-14)">
</text><text class="terminal-2175983513-r4" x="768.6" y="386" textLength="12.2" clip-path="url(#terminal-2175983513-line-15)">▊</text><text class="terminal-2175983513-r10" x="780.8" y="386" textLength="97.6" clip-path="url(#terminal-2175983513-line-15)">▁▁▁▁▁▁▁▁</text><text class="terminal-2175983513-r10" x="878.4" y="386" textLength="12.2" clip-path="url(#terminal-2175983513-line-15)">▎</text><text class="terminal-2175983513-r1" x="976" y="386" textLength="12.2" clip-path="url(#terminal-2175983513-line-15)">
</text><text class="terminal-2175983513-r1" x="976" y="410.4" textLength="12.2" clip-path="url(#terminal-2175983513-line-16)">
</text><text class="terminal-2175983513-r2" x="48.8" y="434.8" textLength="73.2" clip-path="url(#terminal-2175983513-line-17)">Engine</text><text class="terminal-2175983513-r1" x="976" y="434.8" textLength="12.2" clip-path="url(#terminal-2175983513-line-17)">
</text><text class="terminal-2175983513-r4" x="48.8" y="459.2" textLength="12.2" clip-path="url(#terminal-2175983513-line-18)">▊</text><text class="terminal-2175983513-r10" x="61" y="459.2" textLength="829.6" clip-path="url(#terminal-2175983513-line-18)">▔▔▔▔▔▔▔▔▔▔▔▔▔▔▔▔▔▔▔▔▔▔▔▔▔▔▔▔▔▔▔▔▔▔▔▔▔▔▔▔▔▔▔▔▔▔▔▔▔▔▔▔▔▔▔▔▔▔▔▔▔▔▔▔▔▔▔▔</text><text class="terminal-2175983513-r10" x="890.6" y="459.2" textLength="12.2" clip-path="url(#terminal-2175983513-line-18)">▎</text><text class="terminal-2175983513-r1" x="976" y="459.2" textLength="12.2" clip-path="url(#terminal-2175983513-line-18)">
</text><text class="terminal-2175983513-r4" x="48.8" y="483.6" textLength="12.2" clip-path="url(#terminal-2175983513-line-19)">▊</text><text class="terminal-2175983513-r12" x="73.2" y="483.6" textLength="12.2" clip-path="url(#terminal-2175983513-line-19)">▐</text><text class="terminal-2175983513-r13" x="85.4" y="483.6" textLength="12.2" clip-path="url(#terminal-2175983513-line-19)">●</text><text class="terminal-2175983513-r12" x="97.6" y="483.6" textLength="12.2" clip-path="url(#terminal-2175983513-line-19)">▌</text><text class="terminal-2175983513-r9" x="109.8" y="483.6" textLength="268.4" clip-path="url(#terminal-2175983513-line-19)">&#160;large-v3&#160;&#160;(accurate)&#160;</text><text class="terminal-2175983513-r12" x="475.8" y="483.6" textLength="12.2" clip-path="url(#terminal-2175983513-line-19)">▐</text><text class="terminal-2175983513-r14" x="488" y="483.6" textLength="12.2" clip-path="url(#terminal-2175983513-line-19)">●</text><text class="terminal-2175983513-r12" x="500.2" y="483.6" textLength="12.2" clip-path="url(#terminal-2175983513-line-19)">▌</text><text class="terminal-2175983513-r9" x="512.4" y="483.6" textLength="183" clip-path="url(#terminal-2175983513-line-19)">&#160;turbo&#160;&#160;(fast)&#160;</text><text class="terminal-2175983513-r10" x="890.6" y="483.6" textLength="12.2" clip-path="url(#terminal-2175983513-line-19)">▎</text><text class="terminal-2175983513-r1" x="976" y="483.6" textLength="12.2" clip-path="url(#terminal-2175983513-line-19)">
</text><text class="terminal-2175983513-r4" x="48.8" y="508" textLength="12.2" clip-path="url(#terminal-2175983513-line-20)">▊</text><text class="terminal-2175983513-r10" x="61" y="508" textLength="829.6" clip-path="url(#terminal-2175983513-line-20)">▁▁▁▁▁▁▁▁▁▁▁▁▁▁▁▁▁▁▁▁▁▁▁▁▁▁▁▁▁▁▁▁▁▁▁▁▁▁▁▁▁▁▁▁▁▁▁▁▁▁▁▁▁▁▁▁▁▁▁▁▁▁▁▁▁▁▁▁</text><text class="terminal-2175983513-r10" x="890.6" y="508" textLength="12.2" clip-path="url(#terminal-2175983513-line-20)">▎</text><text class="terminal-2175983513-r1" x="976" y="508" textLength="12.2" clip-path="url(#terminal-2175983513-line-20)">
</text><text class="terminal-2175983513-r1" x="976" y="532.4" textLength="12.2" clip-path="url(#terminal-2175983513-line-21)">
</text><text class="terminal-2175983513-r4" x="48.8" y="556.8" textLength="12.2" clip-path="url(#terminal-2175983513-line-22)">▊</text><text class="terminal-2175983513-r10" x="61" y="556.8" textLength="829.6" clip-path="url(#terminal-2175983513-line-22)">▔▔▔▔▔▔▔▔▔▔▔▔▔▔▔▔▔▔▔▔▔▔▔▔▔▔▔▔▔▔▔▔▔▔▔▔▔▔▔▔▔▔▔▔▔▔▔▔▔▔▔▔▔▔▔▔▔▔▔▔▔▔▔▔▔▔▔▔</text><text class="terminal-2175983513-r10" x="890.6" y="556.8" textLength="12.2" clip-path="url(#terminal-2175983513-line-22)">▎</text><text class="terminal-2175983513-r1" x="976" y="556.8" textLength="12.2" clip-path="url(#terminal-2175983513-line-22)">
</text><text class="terminal-2175983513-r4" x="48.8" y="581.2" textLength="12.2" clip-path="url(#terminal-2175983513-line-23)">▊</text><text class="terminal-2175983513-r12" x="73.2" y="581.2" textLength="12.2" clip-path="url(#terminal-2175983513-line-23)">▐</text><text class="terminal-2175983513-r13" x="85.4" y="581.2" textLength="12.2" clip-path="url(#terminal-2175983513-line-23)">●</text><text class="terminal-2175983513-r12" x="97.6" y="581.2" textLength="12.2" clip-path="url(#terminal-2175983513-line-23)">▌</text><text class="terminal-2175983513-r9" x="109.8" y="581.2" textLength="158.6" clip-path="url(#terminal-2175983513-line-23)">&#160;Korean&#160;(ko)&#160;</text><text class="terminal-2175983513-r12" x="341.6" y="581.2" textLength="12.2" clip-path="url(#terminal-2175983513-line-23)">▐</text><text class="terminal-2175983513-r14" x="353.8" y="581.2" textLength="12.2" clip-path="url(#terminal-2175983513-line-23)">●</text><text class="terminal-2175983513-r12" x="366" y="581.2" textLength="12.2" clip-path="url(#terminal-2175983513-line-23)">▌</text><text class="terminal-2175983513-r9" x="378.2" y="581.2" textLength="170.8" clip-path="url(#terminal-2175983513-line-23)">&#160;English&#160;(en)&#160;</text><text class="terminal-2175983513-r12" x="610" y="581.2" textLength="12.2" clip-path="url(#terminal-2175983513-line-23)">▐</text><text class="terminal-2175983513-r14" x="622.2" y="581.2" textLength="12.2" clip-path="url(#terminal-2175983513-line-23)">●</text><text class="terminal-2175983513-r12" x="634.4" y="581.2" textLength="12.2" clip-path="url(#terminal-2175983513-line-23)">▌</text><text class="terminal-2175983513-r9" x="646.6" y="581.2" textLength="158.6" clip-path="url(#terminal-2175983513-line-23)">&#160;Auto-detect&#160;</text><text class="terminal-2175983513-r10" x="890.6" y="581.2" textLength="12.2" clip-path="url(#terminal-2175983513-line-23)">▎</text><text class="terminal-2175983513-r1" x="976" y="581.2" textLength="12.2" clip-path="url(#terminal-2175983513-line-23)">
</text><text class="terminal-2175983513-r4" x="48.8" y="605.6" textLength="12.2" clip-path="url(#terminal-2175983513-line-24)">▊</text><text class="terminal-2175983513-r10" x="61" y="605.6" textLength="829.6" clip-path="url(#terminal-2175983513-line-24)">▁▁▁▁▁▁▁▁▁▁▁▁▁▁▁▁▁▁▁▁▁▁▁▁▁▁▁▁▁▁▁▁▁▁▁▁▁▁▁▁▁▁▁▁▁▁▁▁▁▁▁▁▁▁▁▁▁▁▁▁▁▁▁▁▁▁▁▁</text><text class="terminal-2175983513-r10" x="890.6" y="605.6" textLength="12.2" clip-path="url(#terminal-2175983513-line-24)">▎</text><text class="terminal-2175983513-r1" x="976" y="605.6" textLength="12.2" clip-path="url(#terminal-2175983513-line-24)">
</text><text class="terminal-2175983513-r15" x="0" y="630" textLength="24.4" clip-path="url(#terminal-2175983513-line-25)">&#160;e</text><text class="terminal-2175983513-r15" x="24.4" y="630" textLength="36.6" clip-path="url(#terminal-2175983513-line-25)">sc&#160;</text><text class="terminal-2175983513-r16" x="61" y="630" textLength="85.4" clip-path="url(#terminal-2175983513-line-25)">Cancel&#160;</text><text class="terminal-2175983513-r17" x="805.2" y="630" textLength="12.2" clip-path="url(#terminal-2175983513-line-25)">▏</text><text class="terminal-2175983513-r15" x="817.4" y="630" textLength="24.4" clip-path="url(#terminal-2175983513-line-25)">^p</text><text class="terminal-2175983513-r16" x="841.8" y="630" textLength="85.4" clip-path="url(#terminal-2175983513-line-25)">&#160;palett</text><text class="terminal-2175983513-r16" x="927.2" y="630" textLength="12.2" clip-path="url(#terminal-2175983513-line-25)">e</text>
    </g>
    </g>
</svg>
